<svg id="Layer_1" data-name="Layer 1" xmlns="http://www.w3.org/2000/svg" viewBox="0 0 800 400"><path d="M480,234.21l4.71-5.4c10.66,9.83,20.5,14.4,34.76,14.4C534,243.21,544,235,544,224v-.28c0-10.25-5.4-16.2-27.43-20.63-23.26-4.71-32.68-12.61-32.68-27.29v-.27C483.88,161.08,497,150,515,150c14.13,0,23.41,3.88,33.24,11.77l-4.57,5.68c-9.14-7.89-18.28-10.94-29-10.94-14.26,0-23.68,8.17-23.68,18.28v.28c0,10.25,5.26,16.48,28.26,21.19,22.43,4.57,31.85,12.6,31.85,26.73v.28c0,15.65-13.43,26.45-32.13,26.45C503.55,249.72,491.63,244.6,480,234.21Z"/><path d="M569.47,230.19V183.93H559.22V177.7h10.25V155.12h6.79V177.7h24.79v6.23H576.26V229.5c0,10.11,6,13.71,14.12,13.71a23.63,23.63,0,0,0,10.39-2.49v6.37a25.94,25.94,0,0,1-11.49,2.49C578.33,249.58,569.47,243.63,569.47,230.19Z"/><path d="M607.28,213.3V213c0-19.81,15.37-37,36.42-37s36.15,16.9,36.15,36.7V213c0,19.81-15.37,37-36.42,37S607.28,233.1,607.28,213.3Zm65.23,0V213c0-17-12.74-30.61-29.08-30.61-16.76,0-28.81,13.71-28.81,30.33V213c0,17,12.74,30.61,29.08,30.61C660.46,243.63,672.51,229.92,672.51,213.3Z"/><path d="M693.84,177.7h6.78v20.08c5.54-12.6,17.32-21.74,31.31-21.19v7.48h-.7c-16.34,0-30.61,12.33-30.61,35.32v29h-6.78Z"/><path d="M734.07,213.16v-.28c0-20.5,14.41-36.84,33.52-36.84C787.4,176,800,192.11,800,213a17.46,17.46,0,0,1-.14,2.77H741.27c1.25,17.59,13.85,27.84,27.71,27.84,10.94,0,18.42-4.85,24.23-11.08l4.71,4.15c-7.2,7.76-15.65,13.3-29.22,13.3C750.14,250,734.07,235.18,734.07,213.16Zm58.59-3.47c-1-14.26-9.14-27.42-25.35-27.42-14,0-24.79,11.77-26,27.42Z"/><path d="M200,0C89.72,0,0,89.72,0,200S89.72,400,200,400s200-89.72,200-200S310.28,0,200,0ZM391.21,200c0,105.43-85.78,191.21-191.21,191.21S8.79,305.43,8.79,200,94.57,8.79,200,8.79,391.21,94.57,391.21,200Z"/><path d="M152.86,135.8c0,2.67,1.41,5.55,4.64,5.76,3.21-.21,4.6-3.09,4.62-5.76s-1.41-5.55-4.62-5.75c-3.23.2-4.61,3.09-4.64,5.75"/><path d="M233,190.8a23.81,23.81,0,0,1-4.55,2.73c1.4-2.25,3.1-4.69,4.92-7.08a28.68,28.68,0,0,1-.37,4.35m26.81-44.07a28.47,28.47,0,0,1,5.76-6.63c-1.18,1.5-2.63,3.26-4.24,5.12-.67.78-1.37,1.58-2.09,2.4l.57-.89m55.1,30.61c.21-1.12.43-2.31.69-3.55a195.46,195.46,0,0,1,11.29-36.18,3,3,0,0,0-4.28-3.8,131.12,131.12,0,0,0-26.81,22l4.73-14.63a3,3,0,0,0-5-3.09L279,154.24a6.69,6.69,0,0,1-1.11-1.46c1.58-6.9,2.3-12.37,2.33-12.45a3,3,0,0,0-1.83-3.21,3,3,0,0,0-3.55,1,17.55,17.55,0,0,0-4,10.76,15,15,0,0,0,.7,4.51c-.4,1.59-.81,3.24-1.3,4.89a55.81,55.81,0,0,1-5,12.48c-2,3.31-3.91,4.62-5,4.51a3.39,3.39,0,0,1-1.63-.48c-3.6-2-5-5.07-5-9.68a17.55,17.55,0,0,1,.09-2c5-5.62,9.61-10.74,13.19-14.95,2.35-2.75,4.27-5.1,5.64-7,1.36-2.09,2.37-3,2.61-5.51a3.53,3.53,0,0,0-2.37-3.32,8,8,0,0,0-2.55-.41c-6.14.26-11.07,5.35-15.34,11.57a45.43,45.43,0,0,0-6.9,17l-3.35,3.75c0,.05-2.32,2.43-5.56,6.07-.38-7.84-.85-16.42-.84-24,0-2.52.05-4.92.18-7.15,4.37-8,7.31-13.7,7.35-13.76a2.9,2.9,0,0,0,.15-2.44,3,3,0,0,0-1.73-1.76,7.71,7.71,0,0,0-2.79-.56,6.82,6.82,0,0,0-5.52,3c-2.18,3.35-3,8.08-3.41,13.76-3,5.41-6.53,11.75-10.28,18.1-4.83,8.22-10,16.43-14.39,22.49a59.26,59.26,0,0,1-5.87,7.11c-.28.29-.55.54-.82.77,1-6,3.64-20.36,7.74-35.69.52-2.05,1.1-4.09,1.69-6.15,11.74-21.88,22-42.81,22-42.89a3,3,0,0,0-4.4-3.83c-10.54,7.41-17.69,25.75-23.11,44.15-.44.83-.88,1.63-1.32,2.45-6.14,11.34-12.58,22.7-18,31.12a102.46,102.46,0,0,1-6.89,9.68c1.56-9.55,5-29.07,10.36-49.78.25-1,.49-2,.74-2.92C207.36,97.77,223,64.8,223,64.77a3,3,0,0,0-4.34-3.84c-16.05,10.48-26.67,40.22-34.4,68.68-.52,1-1.05,2.06-1.58,3.08-9.09,17.61-18.55,35.22-26.42,48.36a178.32,178.32,0,0,1-10.34,15.7c-.34.45-.68.87-1,1.26l6.37-36.34a3,3,0,0,0-5.72-1.79s-3.49,7.7-8.26,16S126.19,193,122.4,194.65A3,3,0,0,0,125,200.1h0c6.38-3.29,12-12,17-20.27l-4.22,24.08a3,3,0,0,0,1.18,2.93,4.24,4.24,0,0,0,2.55.83c2.25-.09,3.49-1.18,4.87-2.36,5-4.54,11.67-15.16,19.72-29.09,3.94-6.87,8.12-14.5,12.37-22.45-4.4,20.45-6.6,36.09-6.61,36.13a3.06,3.06,0,0,0,.65,2.34,4.3,4.3,0,0,0,3.31,1.57c3.47-.36,4.88-2.4,7.29-5,4.28-5.05,10-14.06,16-24.41-3,13.41-4.48,23.39-4.49,23.44l.12,1.43A5.06,5.06,0,0,0,199.4,193c2.93-.17,4.57-1.79,6.67-3.71,7.13-7.13,17.65-24.41,26.07-39.21.14,9.06.78,18.84,1.1,26.78-5.67,6.87-11.77,15.2-13.94,21.56a3,3,0,0,0,.76,3.11,3,3,0,0,0,3.11.68c.06,0,3.3-1.17,6.75-2.75a41.3,41.3,0,0,0,5-2.64c1.52-1.07,2.92-1.82,3.81-4.1l.06-.24a39.78,39.78,0,0,0,.6-8.26c0-1.61,0-3.36-.09-5.22,3.63-4.31,6.92-7.88,8.54-9.63a15.14,15.14,0,0,0,7.83,10.71,9.45,9.45,0,0,0,4.47,1.18c4.77-.11,7.89-3.61,10.23-7.47a63.15,63.15,0,0,0,5.69-14.18,6.47,6.47,0,0,0,3.2,1,4.62,4.62,0,0,0,1.94-.42l.85-.59,9-8.74-5.73,17.71a3,3,0,0,0,5.31,2.72,130.25,130.25,0,0,1,23.43-24.12c1.32-1.05,2.56-2,3.72-2.85-9.2,25.12-10.38,43.19-10.39,43.41a3,3,0,0,0,5.38,2.07c7.09-9,10.8-13.76,10.81-13.77,3.59-4.61,7-8.59,10.28-12-4.85,8.88-5.52,16.51-5.46,19.71a16.56,16.56,0,0,0,.07,1.69,3.06,3.06,0,0,0,2.58,2.67,18,18,0,0,0,1.93.11c7.82-.19,14.83-5.73,20.87-12.05-12.3,29.18-19.53,53.1-23.77,70.65a3,3,0,0,0,2.24,3.63,2.94,2.94,0,0,0,.71.09,3,3,0,0,0,2.94-2.3c5.24-21.76,15.21-53.71,34.08-93.5a3,3,0,0,0-5.31-2.84,131.67,131.67,0,0,1-11.1,15.48c-5.84,7.15-13.54,13.82-19.13,14.72.51-6.92,4.12-25.49,31.94-39.71a3,3,0,0,0-1.61-5.68c-.86,0-20,2.15-46,35.65l-3.91,5"/><path d="M131.76,164.62a3.25,3.25,0,1,0-2-6.17s-2.2.73-6,2.09A810.37,810.37,0,0,1,156,84.33a3.25,3.25,0,1,0-5.85-2.84h0a815.49,815.49,0,0,0-34.36,82c-11.28,4.21-28.31,11-47.13,19.82,2.38-6.67,4.86-13.48,7.3-20.07,9.68-26.21,18.68-49.27,18.69-49.33a3.25,3.25,0,0,0-6-2.36c0,.09-16,40.9-28.26,75.76-12.69,6.23-25.9,13.33-38.52,21.19A3.25,3.25,0,0,0,25.2,214h0c10.44-6.51,21.33-12.48,32-17.89-4.81,14-8.7,26.25-10.24,33.35a3.27,3.27,0,0,0,2.5,3.86,4.11,4.11,0,0,0,.69.06,3.25,3.25,0,0,0,3.18-2.55c1.61-7.62,6.42-22.38,12.19-38.85,11.11-5.38,21.78-10.1,31.16-14,6-2.5,11.49-4.66,16.25-6.49C80.76,265.1,79.39,327.76,79.38,328a3.24,3.24,0,0,0,3.18,3.32h.09a3.24,3.24,0,0,0,3.24-3.17s.12-6.36,1.4-18.25c2.71-25.53,10.63-76.18,33.55-141.42,6.87-2.54,10.91-3.86,10.92-3.87"/></svg>